# xmcd
#
# Track frame offsets: 
#        200
#        21742
#        38467
#        60420
#        72722
#        109600
#        133245
#        158757
#        176130
#        198672
#        217792
#
# Disc length: 3221 seconds
#
# Revision: 2
# Processed by: cddbd v1.4PL0 Copyright (c) Steve Scherf et al.
# Submitted via: ExactAudioCopy v0.90b4
#
DISCID=a00c930b
DTITLE=Danny Daniels - Another Shade Of Blue
DYEAR=1995
DGENRE=Blues
TTITLE0=Another Shade Of Blue
TTITLE1=Time To Change
TTITLE2=Overnight Thing
TTITLE3=Ready
TTITLE4=Days Of Summer
TTITLE5=You Gave Me Your Love
TTITLE6=No Stranger To The Blues
TTITLE7=Turn You Around
TTITLE8=His Name
TTITLE9=Bloodline
TTITLE10=Covered In Blue
EXTD=
EXTT0=
EXTT1=
EXTT2=
EXTT3=
EXTT4=
EXTT5=
EXTT6=
EXTT7=
EXTT8=
EXTT9=
EXTT10=
PLAYORDER=
